<mxfile host="Electron" agent="Mozilla/5.0 (Windows NT 10.0; Win64; x64) AppleWebKit/537.36 (KHTML, like Gecko) draw.io/26.0.9 Chrome/128.0.6613.186 Electron/32.2.5 Safari/537.36" version="26.0.9" pages="2">
  <diagram name="第 1 页" id="a6wR9rLIgTdy3JcHLTbb">
    <mxGraphModel dx="2196" dy="1976" grid="1" gridSize="10" guides="1" tooltips="1" connect="1" arrows="1" fold="1" page="1" pageScale="1" pageWidth="827" pageHeight="1169" math="0" shadow="0">
      <root>
        <mxCell id="0" />
        <mxCell id="1" parent="0" />
        <mxCell id="EjNsFv9nT5kDaymNpcSi-16" value="&lt;p style=&quot;margin: 4px 0px 0px;&quot;&gt;&lt;b&gt;题目已保存（草稿）&lt;/b&gt;&lt;/p&gt;&lt;hr style=&quot;border-style:solid;&quot;&gt;&lt;div style=&quot;height:2px;&quot;&gt;问题Id&lt;br&gt;用户Id&lt;/div&gt;" style="verticalAlign=top;align=center;overflow=fill;html=1;whiteSpace=wrap;fillColor=#ffe6cc;strokeColor=#d79b00;fontSize=16;spacingLeft=13;" parent="1" vertex="1">
          <mxGeometry x="80" y="80" width="210" height="90" as="geometry" />
        </mxCell>
        <mxCell id="EjNsFv9nT5kDaymNpcSi-22" value="&lt;p style=&quot;margin: 4px 0px 0px;&quot;&gt;&lt;b&gt;题目已删除&lt;/b&gt;&lt;/p&gt;&lt;hr style=&quot;border-style:solid;&quot;&gt;&lt;div style=&quot;height:2px;&quot;&gt;问题Id&lt;br&gt;用户Id&lt;/div&gt;" style="verticalAlign=top;align=center;overflow=fill;html=1;whiteSpace=wrap;fillColor=#ffe6cc;strokeColor=#d79b00;fontSize=16;spacingLeft=13;" parent="1" vertex="1">
          <mxGeometry x="80" y="400" width="210" height="90" as="geometry" />
        </mxCell>
        <mxCell id="EjNsFv9nT5kDaymNpcSi-23" value="&lt;p style=&quot;margin: 4px 0px 0px;&quot;&gt;&lt;b&gt;题目答案已更新&lt;/b&gt;&lt;/p&gt;&lt;hr style=&quot;border-style:solid;&quot;&gt;&lt;div style=&quot;height:2px;&quot;&gt;问题Id&lt;br&gt;用户Id&lt;/div&gt;" style="verticalAlign=top;align=center;overflow=fill;html=1;whiteSpace=wrap;fillColor=#ffe6cc;strokeColor=#d79b00;fontSize=16;spacingLeft=13;" parent="1" vertex="1">
          <mxGeometry x="80" y="720" width="210" height="90" as="geometry" />
        </mxCell>
        <mxCell id="EjNsFv9nT5kDaymNpcSi-24" value="&lt;p style=&quot;margin: 4px 0px 0px;&quot;&gt;&lt;b&gt;题目问题已更新&lt;/b&gt;&lt;/p&gt;&lt;hr style=&quot;border-style:solid;&quot;&gt;&lt;div style=&quot;height:2px;&quot;&gt;问题Id&lt;br&gt;用户Id&lt;/div&gt;" style="verticalAlign=top;align=center;overflow=fill;html=1;whiteSpace=wrap;fillColor=#ffe6cc;strokeColor=#d79b00;fontSize=16;spacingLeft=13;" parent="1" vertex="1">
          <mxGeometry x="80" y="1040" width="210" height="90" as="geometry" />
        </mxCell>
        <mxCell id="EjNsFv9nT5kDaymNpcSi-25" value="&lt;p style=&quot;margin: 4px 0px 0px;&quot;&gt;&lt;b&gt;题目已上架&lt;/b&gt;&lt;/p&gt;&lt;hr style=&quot;border-style:solid;&quot;&gt;&lt;div style=&quot;height:2px;&quot;&gt;问题Id&lt;br&gt;用户Id&lt;/div&gt;" style="verticalAlign=top;align=center;overflow=fill;html=1;whiteSpace=wrap;fillColor=#ffe6cc;strokeColor=#d79b00;fontSize=16;spacingLeft=13;" parent="1" vertex="1">
          <mxGeometry x="80" y="240" width="210" height="90" as="geometry" />
        </mxCell>
        <mxCell id="EjNsFv9nT5kDaymNpcSi-26" value="&lt;p style=&quot;margin: 4px 0px 0px;&quot;&gt;&lt;b&gt;题目素材已更新&lt;/b&gt;&lt;/p&gt;&lt;hr style=&quot;border-style:solid;&quot;&gt;&lt;div style=&quot;height:2px;&quot;&gt;问题Id&lt;br&gt;用户Id&lt;/div&gt;" style="verticalAlign=top;align=center;overflow=fill;html=1;whiteSpace=wrap;fillColor=#ffe6cc;strokeColor=#d79b00;fontSize=16;spacingLeft=13;" parent="1" vertex="1">
          <mxGeometry x="80" y="880" width="210" height="90" as="geometry" />
        </mxCell>
        <mxCell id="EjNsFv9nT5kDaymNpcSi-27" value="&lt;p style=&quot;margin: 4px 0px 0px;&quot;&gt;&lt;b&gt;题目已下架&lt;/b&gt;&lt;/p&gt;&lt;hr style=&quot;border-style:solid;&quot;&gt;&lt;div style=&quot;height:2px;&quot;&gt;问题Id&lt;br&gt;用户Id&lt;/div&gt;" style="verticalAlign=top;align=center;overflow=fill;html=1;whiteSpace=wrap;fillColor=#ffe6cc;strokeColor=#d79b00;fontSize=16;spacingLeft=13;" parent="1" vertex="1">
          <mxGeometry x="80" y="560" width="210" height="90" as="geometry" />
        </mxCell>
        <mxCell id="EjNsFv9nT5kDaymNpcSi-28" value="&lt;p style=&quot;margin: 4px 0px 0px;&quot;&gt;&lt;b&gt;试卷已生成&lt;/b&gt;&lt;/p&gt;&lt;hr style=&quot;border-style:solid;&quot;&gt;&lt;div style=&quot;height:2px;&quot;&gt;试卷Id&lt;br&gt;用户Id&lt;/div&gt;" style="verticalAlign=top;align=center;overflow=fill;html=1;whiteSpace=wrap;fillColor=#ffe6cc;strokeColor=#d79b00;fontSize=16;spacingLeft=13;" parent="1" vertex="1">
          <mxGeometry x="360" y="80" width="210" height="90" as="geometry" />
        </mxCell>
        <mxCell id="EjNsFv9nT5kDaymNpcSi-29" value="&lt;p style=&quot;margin: 4px 0px 0px;&quot;&gt;&lt;b&gt;试卷已发布&lt;/b&gt;&lt;/p&gt;&lt;hr style=&quot;border-style:solid;&quot;&gt;&lt;div style=&quot;height:2px;&quot;&gt;试卷Id&lt;br&gt;用户Id&lt;/div&gt;" style="verticalAlign=top;align=center;overflow=fill;html=1;whiteSpace=wrap;fillColor=#ffe6cc;strokeColor=#d79b00;fontSize=16;spacingLeft=13;" parent="1" vertex="1">
          <mxGeometry x="360" y="240" width="210" height="90" as="geometry" />
        </mxCell>
        <mxCell id="EjNsFv9nT5kDaymNpcSi-30" value="&lt;p style=&quot;margin: 4px 0px 0px;&quot;&gt;&lt;b&gt;考试已开始&lt;/b&gt;&lt;/p&gt;&lt;hr style=&quot;border-style:solid;&quot;&gt;&lt;div style=&quot;height:2px;&quot;&gt;考试Id&lt;br&gt;用户Id&lt;/div&gt;" style="verticalAlign=top;align=center;overflow=fill;html=1;whiteSpace=wrap;fillColor=#ffe6cc;strokeColor=#d79b00;fontSize=16;spacingLeft=13;" parent="1" vertex="1">
          <mxGeometry x="680" y="80" width="210" height="90" as="geometry" />
        </mxCell>
        <mxCell id="EjNsFv9nT5kDaymNpcSi-31" value="&lt;p style=&quot;margin: 4px 0px 0px;&quot;&gt;&lt;b&gt;考试已结束&lt;/b&gt;&lt;/p&gt;&lt;hr style=&quot;border-style:solid;&quot;&gt;&lt;div style=&quot;height:2px;&quot;&gt;考试Id&lt;br&gt;&lt;/div&gt;" style="verticalAlign=top;align=center;overflow=fill;html=1;whiteSpace=wrap;fillColor=#ffe6cc;strokeColor=#d79b00;fontSize=16;spacingLeft=13;" parent="1" vertex="1">
          <mxGeometry x="680" y="560" width="210" height="90" as="geometry" />
        </mxCell>
        <mxCell id="EjNsFv9nT5kDaymNpcSi-32" value="&lt;p style=&quot;margin: 4px 0px 0px;&quot;&gt;&lt;b&gt;考生已参加考试&lt;/b&gt;&lt;/p&gt;&lt;hr style=&quot;border-style:solid;&quot;&gt;&lt;div style=&quot;height:2px;&quot;&gt;考试Id&lt;br&gt;考生Id&lt;/div&gt;" style="verticalAlign=top;align=center;overflow=fill;html=1;whiteSpace=wrap;fillColor=#ffe6cc;strokeColor=#d79b00;fontSize=16;spacingLeft=13;" parent="1" vertex="1">
          <mxGeometry x="680" y="240" width="210" height="90" as="geometry" />
        </mxCell>
        <mxCell id="EjNsFv9nT5kDaymNpcSi-33" value="&lt;p style=&quot;margin: 4px 0px 0px;&quot;&gt;&lt;b&gt;考生已作答&lt;/b&gt;&lt;/p&gt;&lt;hr style=&quot;border-style:solid;&quot;&gt;&lt;div style=&quot;height:2px;&quot;&gt;考试Id&lt;br&gt;考生Id&lt;br&gt;问题Id&lt;/div&gt;" style="verticalAlign=top;align=center;overflow=fill;html=1;whiteSpace=wrap;fillColor=#ffe6cc;strokeColor=#d79b00;fontSize=16;spacingLeft=13;" parent="1" vertex="1">
          <mxGeometry x="680" y="400" width="210" height="110" as="geometry" />
        </mxCell>
        <mxCell id="EjNsFv9nT5kDaymNpcSi-39" value="&lt;p style=&quot;margin: 4px 0px 0px;&quot;&gt;&lt;b&gt;用户已练习&lt;/b&gt;&lt;/p&gt;&lt;hr style=&quot;border-style:solid;&quot;&gt;&lt;div style=&quot;height:2px;&quot;&gt;问题Id&lt;br&gt;用户Id&lt;/div&gt;" style="verticalAlign=top;align=center;overflow=fill;html=1;whiteSpace=wrap;fillColor=#ffe6cc;strokeColor=#d79b00;fontSize=16;spacingLeft=13;" parent="1" vertex="1">
          <mxGeometry x="1000" y="80" width="210" height="90" as="geometry" />
        </mxCell>
        <mxCell id="EjNsFv9nT5kDaymNpcSi-40" value="&lt;p style=&quot;margin: 4px 0px 0px;&quot;&gt;&lt;b&gt;试卷已批改&lt;/b&gt;&lt;/p&gt;&lt;hr style=&quot;border-style:solid;&quot;&gt;&lt;div style=&quot;height:2px;&quot;&gt;试卷Id&lt;br&gt;&lt;/div&gt;" style="verticalAlign=top;align=center;overflow=fill;html=1;whiteSpace=wrap;fillColor=#ffe6cc;strokeColor=#d79b00;fontSize=16;spacingLeft=13;" parent="1" vertex="1">
          <mxGeometry x="360" y="400" width="210" height="90" as="geometry" />
        </mxCell>
        <mxCell id="EjNsFv9nT5kDaymNpcSi-41" value="&lt;p style=&quot;margin: 4px 0px 0px;&quot;&gt;&lt;b&gt;练习已批改&lt;/b&gt;&lt;/p&gt;&lt;hr style=&quot;border-style:solid;&quot;&gt;&lt;div style=&quot;height:2px;&quot;&gt;问题Id&lt;/div&gt;" style="verticalAlign=top;align=center;overflow=fill;html=1;whiteSpace=wrap;fillColor=#ffe6cc;strokeColor=#d79b00;fontSize=16;spacingLeft=13;" parent="1" vertex="1">
          <mxGeometry x="1000" y="240" width="210" height="90" as="geometry" />
        </mxCell>
        <mxCell id="EjNsFv9nT5kDaymNpcSi-42" value="&lt;p style=&quot;margin: 4px 0px 0px;&quot;&gt;&lt;b&gt;试题已批改&lt;/b&gt;&lt;/p&gt;&lt;hr style=&quot;border-style:solid;&quot;&gt;&lt;div style=&quot;height:2px;&quot;&gt;试卷Id&lt;br&gt;问题Id&lt;/div&gt;" style="verticalAlign=top;align=center;overflow=fill;html=1;whiteSpace=wrap;fillColor=#ffe6cc;strokeColor=#d79b00;fontSize=16;spacingLeft=13;" parent="1" vertex="1">
          <mxGeometry x="360" y="560" width="210" height="90" as="geometry" />
        </mxCell>
      </root>
    </mxGraphModel>
  </diagram>
  <diagram id="ZgaA7AjhtOG-FWC7CvyC" name="第 2 页">
    <mxGraphModel dx="2234" dy="723" grid="1" gridSize="10" guides="1" tooltips="1" connect="1" arrows="1" fold="1" page="1" pageScale="1" pageWidth="827" pageHeight="1169" math="0" shadow="0">
      <root>
        <mxCell id="0" />
        <mxCell id="1" parent="0" />
        <mxCell id="2HFOxoNms0U5ICgy9XDa-9" style="edgeStyle=orthogonalEdgeStyle;rounded=0;orthogonalLoop=1;jettySize=auto;html=1;exitX=0.5;exitY=1;exitDx=0;exitDy=0;entryX=0.5;entryY=0;entryDx=0;entryDy=0;" edge="1" parent="1" source="2HFOxoNms0U5ICgy9XDa-1" target="2HFOxoNms0U5ICgy9XDa-7">
          <mxGeometry relative="1" as="geometry" />
        </mxCell>
        <mxCell id="2HFOxoNms0U5ICgy9XDa-1" value="QuestionAggregate" style="html=1;whiteSpace=wrap;fillColor=#d5e8d4;strokeColor=#82b366;" vertex="1" parent="1">
          <mxGeometry x="360" y="370" width="140" height="50" as="geometry" />
        </mxCell>
        <mxCell id="2HFOxoNms0U5ICgy9XDa-14" style="edgeStyle=orthogonalEdgeStyle;rounded=0;orthogonalLoop=1;jettySize=auto;html=1;exitX=0.5;exitY=1;exitDx=0;exitDy=0;entryX=0.5;entryY=0;entryDx=0;entryDy=0;" edge="1" parent="1" source="2HFOxoNms0U5ICgy9XDa-2" target="2HFOxoNms0U5ICgy9XDa-11">
          <mxGeometry relative="1" as="geometry" />
        </mxCell>
        <mxCell id="2HFOxoNms0U5ICgy9XDa-2" value="MaterialCapableQuestion" style="html=1;whiteSpace=wrap;fillColor=#d5e8d4;strokeColor=#82b366;" vertex="1" parent="1">
          <mxGeometry x="620" y="635" width="180" height="60" as="geometry" />
        </mxCell>
        <mxCell id="2HFOxoNms0U5ICgy9XDa-3" value="ChooseCapableQuestion" style="html=1;whiteSpace=wrap;fillColor=#d5e8d4;strokeColor=#82b366;" vertex="1" parent="1">
          <mxGeometry x="80" y="450" width="180" height="60" as="geometry" />
        </mxCell>
        <mxCell id="2HFOxoNms0U5ICgy9XDa-19" style="edgeStyle=orthogonalEdgeStyle;rounded=0;orthogonalLoop=1;jettySize=auto;html=1;exitX=0.5;exitY=1;exitDx=0;exitDy=0;entryX=0.5;entryY=0;entryDx=0;entryDy=0;" edge="1" parent="1" source="2HFOxoNms0U5ICgy9XDa-4" target="2HFOxoNms0U5ICgy9XDa-15">
          <mxGeometry relative="1" as="geometry" />
        </mxCell>
        <mxCell id="2HFOxoNms0U5ICgy9XDa-4" value="ChildrenCapableQuestion" style="html=1;whiteSpace=wrap;fillColor=#d5e8d4;strokeColor=#82b366;" vertex="1" parent="1">
          <mxGeometry x="620" y="850" width="180" height="60" as="geometry" />
        </mxCell>
        <mxCell id="2HFOxoNms0U5ICgy9XDa-10" style="edgeStyle=orthogonalEdgeStyle;rounded=0;orthogonalLoop=1;jettySize=auto;html=1;exitX=0.5;exitY=1;exitDx=0;exitDy=0;" edge="1" parent="1" source="2HFOxoNms0U5ICgy9XDa-5" target="2HFOxoNms0U5ICgy9XDa-7">
          <mxGeometry relative="1" as="geometry">
            <mxPoint x="430" y="640" as="targetPoint" />
            <Array as="points">
              <mxPoint x="660" y="573" />
              <mxPoint x="431" y="573" />
            </Array>
          </mxGeometry>
        </mxCell>
        <mxCell id="2HFOxoNms0U5ICgy9XDa-5" value="CandidateAnswerCapableQuestion" style="html=1;whiteSpace=wrap;fillColor=#d5e8d4;strokeColor=#82b366;" vertex="1" parent="1">
          <mxGeometry x="540" y="450" width="240" height="60" as="geometry" />
        </mxCell>
        <mxCell id="2HFOxoNms0U5ICgy9XDa-12" style="edgeStyle=orthogonalEdgeStyle;rounded=0;orthogonalLoop=1;jettySize=auto;html=1;exitX=0.5;exitY=1;exitDx=0;exitDy=0;" edge="1" parent="1" source="2HFOxoNms0U5ICgy9XDa-7" target="2HFOxoNms0U5ICgy9XDa-11">
          <mxGeometry relative="1" as="geometry" />
        </mxCell>
        <mxCell id="2HFOxoNms0U5ICgy9XDa-7" value="MultipleChoiceQuestions" style="html=1;whiteSpace=wrap;fillColor=#dae8fc;strokeColor=#6c8ebf;" vertex="1" parent="1">
          <mxGeometry x="310" y="640" width="240" height="55" as="geometry" />
        </mxCell>
        <mxCell id="2HFOxoNms0U5ICgy9XDa-8" style="edgeStyle=orthogonalEdgeStyle;rounded=0;orthogonalLoop=1;jettySize=auto;html=1;exitX=0.5;exitY=1;exitDx=0;exitDy=0;entryX=0.5;entryY=0;entryDx=0;entryDy=0;" edge="1" parent="1" source="2HFOxoNms0U5ICgy9XDa-3" target="2HFOxoNms0U5ICgy9XDa-7">
          <mxGeometry relative="1" as="geometry" />
        </mxCell>
        <mxCell id="2HFOxoNms0U5ICgy9XDa-16" value="" style="edgeStyle=orthogonalEdgeStyle;rounded=0;orthogonalLoop=1;jettySize=auto;html=1;" edge="1" parent="1" source="2HFOxoNms0U5ICgy9XDa-11" target="2HFOxoNms0U5ICgy9XDa-15">
          <mxGeometry relative="1" as="geometry" />
        </mxCell>
        <mxCell id="2HFOxoNms0U5ICgy9XDa-11" value="MateroalMultipleChoiceQuestions" style="html=1;whiteSpace=wrap;fillColor=#dae8fc;strokeColor=#6c8ebf;" vertex="1" parent="1">
          <mxGeometry x="310" y="840" width="240" height="55" as="geometry" />
        </mxCell>
        <mxCell id="2HFOxoNms0U5ICgy9XDa-15" value="MateroalMultipleChoiceQuestions" style="html=1;whiteSpace=wrap;fillColor=#dae8fc;strokeColor=#6c8ebf;" vertex="1" parent="1">
          <mxGeometry x="310" y="1030" width="240" height="55" as="geometry" />
        </mxCell>
        <mxCell id="2HFOxoNms0U5ICgy9XDa-20" value="&lt;font style=&quot;font-size: 20px;&quot;&gt;普通单选题、多选题&lt;/font&gt;" style="text;html=1;align=center;verticalAlign=middle;whiteSpace=wrap;rounded=0;" vertex="1" parent="1">
          <mxGeometry x="80" y="637.5" width="190" height="60" as="geometry" />
        </mxCell>
        <mxCell id="2HFOxoNms0U5ICgy9XDa-21" value="&lt;font style=&quot;font-size: 20px;&quot;&gt;带图片或是素材的单选题、多选题&lt;/font&gt;" style="text;html=1;align=center;verticalAlign=middle;whiteSpace=wrap;rounded=0;" vertex="1" parent="1">
          <mxGeometry x="80" y="820" width="190" height="60" as="geometry" />
        </mxCell>
        <mxCell id="2HFOxoNms0U5ICgy9XDa-22" value="&lt;span style=&quot;font-size: 20px;&quot;&gt;完形填空&lt;/span&gt;" style="text;html=1;align=center;verticalAlign=middle;whiteSpace=wrap;rounded=0;" vertex="1" parent="1">
          <mxGeometry x="80" y="1010" width="190" height="60" as="geometry" />
        </mxCell>
        <mxCell id="2HFOxoNms0U5ICgy9XDa-23" value="QuestionAggregate" style="html=1;whiteSpace=wrap;fillColor=#d5e8d4;strokeColor=#82b366;" vertex="1" parent="1">
          <mxGeometry x="-280" y="370" width="140" height="50" as="geometry" />
        </mxCell>
      </root>
    </mxGraphModel>
  </diagram>
</mxfile>
